<svg width="241" height="112" viewBox="0 0 241 112" fill="none" xmlns="http://www.w3.org/2000/svg">
<rect width="241" height="112" fill="none"/>
<path d="M16.452 66.212V62.144C16.452 61.352 16.14 60.776 15.516 60.416C14.892 60.056 13.812 59.696 12.276 59.336L9.072 58.616C7.608 58.28 6.504 57.908 5.76 57.5C4.176 56.66 3.384 54.92 3.384 52.28V49.508C3.384 47.516 4.092 46.076 5.508 45.188C6.948 44.276 8.844 43.82 11.196 43.82C13.548 43.82 15.432 44.276 16.848 45.188C18.264 46.076 18.972 47.516 18.972 49.508V51.092C18.972 51.644 18.492 51.92 17.532 51.92C16.572 51.92 16.092 51.644 16.092 51.092V49.148C16.092 47.276 14.448 46.34 11.16 46.34C7.896 46.34 6.264 47.276 6.264 49.148V52.208C6.264 53.528 6.456 54.44 6.84 54.944C7.248 55.424 7.992 55.784 9.072 56.024L12.276 56.744C14.58 57.248 15.888 57.596 16.2 57.788C16.536 57.956 16.92 58.148 17.352 58.364C17.784 58.58 18.072 58.808 18.216 59.048C18.384 59.264 18.576 59.54 18.792 59.876C19.152 60.428 19.332 61.28 19.332 62.432V65.852C19.332 67.82 18.54 69.26 16.956 70.172C15.396 71.084 13.416 71.54 11.016 71.54C8.64 71.54 6.684 71.084 5.148 70.172C3.636 69.26 2.88 67.82 2.88 65.852V64.268C2.88 63.716 3.36 63.44 4.32 63.44C5.28 63.44 5.76 63.716 5.76 64.268V66.212C5.76 67.196 6.252 67.916 7.236 68.372C8.244 68.804 9.504 69.02 11.016 69.02C12.552 69.02 13.836 68.792 14.868 68.336C15.924 67.88 16.452 67.172 16.452 66.212ZM42.1268 54.548V70.352C42.1268 70.904 41.6468 71.18 40.6868 71.18C39.7268 71.18 39.2468 70.904 39.2468 70.352V54.188C39.2468 52.316 37.6028 51.38 34.3148 51.38C31.0508 51.38 29.4188 52.316 29.4188 54.188V70.352C29.4188 70.904 28.9388 71.18 27.9788 71.18C27.0188 71.18 26.5388 70.904 26.5388 70.352V43.028C26.5388 42.476 27.0188 42.2 27.9788 42.2C28.9388 42.2 29.4188 42.476 29.4188 43.028V50.336C30.7388 49.352 32.4668 48.86 34.6028 48.86C36.7628 48.86 38.5508 49.316 39.9668 50.228C41.4068 51.116 42.1268 52.556 42.1268 54.548ZM59.1578 71H54.9458C52.8338 71 51.3098 70.568 50.3738 69.704C49.4378 68.84 48.9698 67.376 48.9698 65.312V65.024C48.9698 62.984 49.3898 61.58 50.2298 60.812C51.0698 60.044 52.5698 59.552 54.7298 59.336L60.9578 58.724V54.728C60.9578 52.856 59.3258 51.92 56.0618 51.92H51.1298C50.6498 51.92 50.4098 51.5 50.4098 50.66C50.4098 49.82 50.6498 49.4 51.1298 49.4H56.0618C58.4138 49.4 60.2978 49.856 61.7138 50.768C63.1298 51.656 63.8378 53.096 63.8378 55.088V65.708C63.8378 67.268 64.1138 68.504 64.6658 69.416C64.8338 69.704 64.9178 69.884 64.9178 69.956C64.9178 70.244 64.6898 70.556 64.2338 70.892C63.7778 71.204 63.3938 71.36 63.0818 71.36C62.5538 71.36 62.0618 70.868 61.6058 69.884C61.1738 68.876 60.9578 67.604 60.9578 66.068V61.244L54.9458 61.856C53.6498 62 52.8098 62.288 52.4258 62.72C52.0418 63.152 51.8498 63.92 51.8498 65.024V65.312C51.8498 66.464 52.0418 67.28 52.4258 67.76C52.8338 68.24 53.6738 68.48 54.9458 68.48H59.1578C59.6378 68.48 59.8778 68.9 59.8778 69.74C59.8778 70.58 59.6378 71 59.1578 71ZM81.3173 55.988V54.188C81.3173 52.316 80.2013 51.38 77.9693 51.38C75.7373 51.38 74.6213 52.316 74.6213 54.188V70.712C74.6213 71.264 74.1413 71.54 73.1813 71.54C72.2213 71.54 71.7413 71.264 71.7413 70.712V54.548C71.7413 52.556 72.3053 51.116 73.4333 50.228C74.5853 49.316 76.0973 48.86 77.9693 48.86C82.1213 48.86 84.1973 50.732 84.1973 54.476V55.988C84.1973 56.54 83.7173 56.816 82.7573 56.816C81.7973 56.816 81.3173 56.54 81.3173 55.988ZM104.27 54.476V55.556C104.27 57.596 103.85 59 103.01 59.768C102.17 60.536 100.634 61.028 98.4023 61.244L91.3823 61.928V66.212C91.3823 68.084 92.9423 69.02 96.0623 69.02C99.6143 69.02 101.39 68.204 101.39 66.572V65.204C101.39 64.652 101.87 64.376 102.83 64.376C103.79 64.376 104.27 64.652 104.27 65.204V66.212C104.27 69.764 101.63 71.54 96.3503 71.54C94.0223 71.54 92.1263 71.084 90.6623 70.172C89.2223 69.26 88.5023 67.82 88.5023 65.852V54.548C88.5023 52.556 89.2703 51.116 90.8063 50.228C92.3423 49.316 94.3463 48.86 96.8183 48.86C99.2903 48.86 101.15 49.292 102.398 50.156C103.646 51.02 104.27 52.46 104.27 54.476ZM91.3823 54.188V59.408L98.1503 58.724C99.5183 58.58 100.394 58.292 100.778 57.86C101.186 57.428 101.39 56.66 101.39 55.556V54.188C101.39 52.316 99.7223 51.38 96.3863 51.38C93.0503 51.38 91.3823 52.316 91.3823 54.188ZM128.487 45.008V70.352C128.487 70.904 128.007 71.18 127.047 71.18C126.087 71.18 125.607 70.904 125.607 70.352V59.156H114.699V70.352C114.699 70.904 114.219 71.18 113.259 71.18C112.299 71.18 111.819 70.904 111.819 70.352V45.008C111.819 44.456 112.299 44.18 113.259 44.18C114.219 44.18 114.699 44.456 114.699 45.008V56.636H125.607V45.008C125.607 44.456 126.087 44.18 127.047 44.18C128.007 44.18 128.487 44.456 128.487 45.008ZM151.802 54.476V55.556C151.802 57.596 151.382 59 150.542 59.768C149.702 60.536 148.166 61.028 145.934 61.244L138.914 61.928V66.212C138.914 68.084 140.474 69.02 143.594 69.02C147.146 69.02 148.922 68.204 148.922 66.572V65.204C148.922 64.652 149.402 64.376 150.362 64.376C151.322 64.376 151.802 64.652 151.802 65.204V66.212C151.802 69.764 149.162 71.54 143.882 71.54C141.554 71.54 139.658 71.084 138.194 70.172C136.754 69.26 136.034 67.82 136.034 65.852V54.548C136.034 52.556 136.802 51.116 138.338 50.228C139.874 49.316 141.878 48.86 144.35 48.86C146.822 48.86 148.682 49.292 149.93 50.156C151.178 51.02 151.802 52.46 151.802 54.476ZM138.914 54.188V59.408L145.682 58.724C147.05 58.58 147.926 58.292 148.31 57.86C148.718 57.428 148.922 56.66 148.922 55.556V54.188C148.922 52.316 147.254 51.38 143.918 51.38C140.582 51.38 138.914 52.316 138.914 54.188ZM168.927 55.988V54.188C168.927 52.316 167.811 51.38 165.579 51.38C163.347 51.38 162.231 52.316 162.231 54.188V70.712C162.231 71.264 161.751 71.54 160.791 71.54C159.831 71.54 159.351 71.264 159.351 70.712V54.548C159.351 52.556 159.915 51.116 161.043 50.228C162.195 49.316 163.707 48.86 165.579 48.86C169.731 48.86 171.807 50.732 171.807 54.476V55.988C171.807 56.54 171.327 56.816 170.367 56.816C169.407 56.816 168.927 56.54 168.927 55.988ZM191.88 54.476V55.556C191.88 57.596 191.46 59 190.62 59.768C189.78 60.536 188.244 61.028 186.012 61.244L178.992 61.928V66.212C178.992 68.084 180.552 69.02 183.672 69.02C187.224 69.02 189 68.204 189 66.572V65.204C189 64.652 189.48 64.376 190.44 64.376C191.4 64.376 191.88 64.652 191.88 65.204V66.212C191.88 69.764 189.24 71.54 183.96 71.54C181.632 71.54 179.736 71.084 178.272 70.172C176.832 69.26 176.112 67.82 176.112 65.852V54.548C176.112 52.556 176.88 51.116 178.416 50.228C179.952 49.316 181.956 48.86 184.428 48.86C186.9 48.86 188.76 49.292 190.008 50.156C191.256 51.02 191.88 52.46 191.88 54.476ZM178.992 54.188V59.408L185.76 58.724C187.128 58.58 188.004 58.292 188.388 57.86C188.796 57.428 189 56.66 189 55.556V54.188C189 52.316 187.332 51.38 183.996 51.38C180.66 51.38 178.992 52.316 178.992 54.188Z" fill="#F9A826"/>
<path d="M162.912 77.984V78.704C162.912 80.064 162.632 81 162.072 81.512C161.512 82.024 160.488 82.352 159 82.496L154.32 82.952V85.808C154.32 87.056 155.36 87.68 157.44 87.68C159.808 87.68 160.992 87.136 160.992 86.048V85.136C160.992 84.768 161.312 84.584 161.952 84.584C162.592 84.584 162.912 84.768 162.912 85.136V85.808C162.912 88.176 161.152 89.36 157.632 89.36C156.08 89.36 154.816 89.056 153.84 88.448C152.88 87.84 152.4 86.88 152.4 85.568V78.032C152.4 76.704 152.912 75.744 153.936 75.152C154.96 74.544 156.296 74.24 157.944 74.24C159.592 74.24 160.832 74.528 161.664 75.104C162.496 75.68 162.912 76.64 162.912 77.984ZM154.32 77.792V81.272L158.832 80.816C159.744 80.72 160.328 80.528 160.584 80.24C160.856 79.952 160.992 79.44 160.992 78.704V77.792C160.992 76.544 159.88 75.92 157.656 75.92C155.432 75.92 154.32 76.544 154.32 77.792ZM174.017 89H171.209C169.801 89 168.785 88.712 168.161 88.136C167.537 87.56 167.225 86.584 167.225 85.208V85.016C167.225 83.656 167.505 82.72 168.065 82.208C168.625 81.696 169.625 81.368 171.065 81.224L175.217 80.816V78.152C175.217 76.904 174.129 76.28 171.953 76.28H168.665C168.345 76.28 168.185 76 168.185 75.44C168.185 74.88 168.345 74.6 168.665 74.6H171.953C173.521 74.6 174.777 74.904 175.721 75.512C176.665 76.104 177.137 77.064 177.137 78.392V85.472C177.137 86.512 177.321 87.336 177.689 87.944C177.801 88.136 177.857 88.256 177.857 88.304C177.857 88.496 177.705 88.704 177.401 88.928C177.097 89.136 176.841 89.24 176.633 89.24C176.281 89.24 175.953 88.912 175.649 88.256C175.361 87.584 175.217 86.736 175.217 85.712V82.496L171.209 82.904C170.345 83 169.785 83.192 169.529 83.48C169.273 83.768 169.145 84.28 169.145 85.016V85.208C169.145 85.976 169.273 86.52 169.529 86.84C169.801 87.16 170.361 87.32 171.209 87.32H174.017C174.337 87.32 174.497 87.6 174.497 88.16C174.497 88.72 174.337 89 174.017 89ZM190.446 78.752V77.816C190.446 76.552 189.414 75.92 187.35 75.92C186.47 75.92 185.75 76.064 185.19 76.352C184.63 76.64 184.35 77.096 184.35 77.72V78.248C184.35 79.112 184.462 79.68 184.686 79.952C184.91 80.208 185.39 80.424 186.126 80.6L188.214 81.128C190.198 81.64 191.374 82.136 191.742 82.616C192.19 83.208 192.414 83.992 192.414 84.968V85.832C192.414 87.08 191.926 87.984 190.95 88.544C189.99 89.088 188.742 89.36 187.206 89.36C184.71 89.36 183.126 88.728 182.454 87.464C182.182 86.936 182.046 86.296 182.046 85.544V84.776C182.046 84.568 182.118 84.432 182.262 84.368C182.406 84.288 182.654 84.248 183.006 84.248C183.63 84.248 183.942 84.448 183.942 84.848V85.928C183.942 86.568 184.222 87.024 184.782 87.296C185.342 87.552 186.158 87.68 187.23 87.68C189.422 87.68 190.518 87.12 190.518 86V84.728C190.518 84.232 190.326 83.848 189.942 83.576C189.574 83.304 188.934 83.048 188.022 82.808L185.91 82.28C184.486 81.928 183.55 81.512 183.102 81.032C182.67 80.536 182.454 79.584 182.454 78.176V77.888C182.486 76.608 182.942 75.68 183.822 75.104C184.702 74.528 185.862 74.24 187.302 74.24C190.662 74.24 192.342 75.488 192.342 77.984V78.824C192.342 79.16 192.022 79.328 191.382 79.328C190.758 79.328 190.446 79.136 190.446 78.752ZM199.49 75.032V86.192C199.49 86.704 199.61 87.184 199.85 87.632C200.09 88.064 200.21 88.288 200.21 88.304C200.21 88.496 200.058 88.704 199.754 88.928C199.45 89.136 199.194 89.24 198.986 89.24C198.65 89.24 198.33 88.952 198.026 88.376C197.722 87.784 197.57 87.136 197.57 86.432V75.032C197.57 74.664 197.89 74.48 198.53 74.48C199.17 74.48 199.49 74.664 199.49 75.032ZM199.562 69.92V72.008C199.562 72.408 199.21 72.608 198.506 72.608C197.818 72.608 197.474 72.408 197.474 72.008V69.92C197.474 69.52 197.818 69.32 198.506 69.32C199.21 69.32 199.562 69.52 199.562 69.92ZM206.685 70.352V86.192C206.685 86.704 206.805 87.184 207.045 87.632C207.285 88.064 207.405 88.288 207.405 88.304C207.405 88.496 207.253 88.704 206.949 88.928C206.645 89.136 206.389 89.24 206.181 89.24C205.845 89.24 205.525 88.952 205.221 88.376C204.917 87.784 204.765 87.136 204.765 86.432V70.352C204.765 69.984 205.085 69.8 205.725 69.8C206.365 69.8 206.685 69.984 206.685 70.352ZM215.152 95H213.424C213.104 95 212.944 94.72 212.944 94.16C212.944 93.6 213.104 93.32 213.424 93.32H215.152C216.048 93.32 216.664 93.184 217 92.912C217.336 92.656 217.568 92.168 217.696 91.448L218.032 89.36H216.64C215.376 89.36 214.48 89.104 213.952 88.592C213.424 88.08 213.064 87.24 212.872 86.072L211.12 75.512C211.056 75.144 211.024 74.944 211.024 74.912C211.024 74.624 211.328 74.48 211.936 74.48C212.544 74.48 212.88 74.664 212.944 75.032L214.744 85.808C214.856 86.496 215.032 86.984 215.272 87.272C215.528 87.544 215.984 87.68 216.64 87.68H218.32L220.432 75.032C220.496 74.664 220.816 74.48 221.392 74.48C221.968 74.48 222.256 74.624 222.256 74.912C222.256 74.944 222.232 75.128 222.184 75.464L219.52 91.208C219.264 92.728 218.856 93.736 218.296 94.232C217.736 94.744 216.688 95 215.152 95Z" fill="#F9A826"/>
<path d="M224.707 65.7071C225.098 65.3166 225.098 64.6834 224.707 64.2929L218.343 57.9289C217.953 57.5384 217.319 57.5384 216.929 57.9289C216.538 58.3195 216.538 58.9526 216.929 59.3431L222.586 65L216.929 70.6569C216.538 71.0474 216.538 71.6805 216.929 72.0711C217.319 72.4616 217.953 72.4616 218.343 72.0711L224.707 65.7071ZM193 66L224 66V64L193 64V66Z" fill="#F9A826"/>
</svg>
